PathFileType	4	(X/Y/Z)	./resultDataOpenSim/trcMotMarkerGrf/sub06/qtm-14-05.trc
DataRate	CameraRate	NumFrames	NumMarkers	Units	OrigDataRate	OrigDataStartFrame	OrigNumFrames
250.000000	250.000000	9	24	m	250.000000	136	543
Frame#	Time	L.Toe.Tip			R.Toe.Tip			L.Ankle.Lat			R.Ankle.Lat			L.Ankle.Med			R.Ankle.Med			L.Heel			R.Heel			L.Knee.Lat			R.Knee.Lat			L.Knee.Med			R.Knee.Med			L.Thigh.Upper			R.Thigh.Upper			L.ASIS			R.ASIS			V.Sacral			L.Acromium			R.Acromium			C7			L.Elbow			R.Elbow			L.Wrist.Lat			R.Wrist.Lat
		X1	Y1	Z1	X2	Y2	Z2	X3	Y3	Z3	X4	Y4	Z4	X5	Y5	Z5	X6	Y6	Z6	X7	Y7	Z7	X8	Y8	Z8	X9	Y9	Z9	X10	Y10	Z10	X11	Y11	Z11	X12	Y12	Z12	X13	Y13	Z13	X14	Y14	Z14	X15	Y15	Z15	X16	Y16	Z16	X17	Y17	Z17	X18	Y18	Z18	X19	Y19	Z19	X20	Y20	Z20	X21	Y21	Z21	X22	Y22	Z22	X23	Y23	Z23	X24	Y24	Z24

136	0.54	-0.12753835	0.13252393	-0.053854231	-0.77529223	0.035359134	0.10278016	-0.25349189	0.10561908	-0.072281598	-0.90669663	0.065552897	0.12579635	-0.25695583	0.12141119	0.01222579	-0.88515835	0.085886519	0.04027149	-0.29859983	0.042900764	-0.021678701	-0.96480194	0.04738496	0.063381864	-0.39660255	0.44197074	-0.078662247	-0.7451808	0.42271227	0.158992	-0.41681819	0.43459613	0.047805617	-0.77627494	0.42521317	0.027773395	-0.58876695	0.78054158	-0.13308222	-0.63063753	0.77220959	0.21182134	-0.52831858	0.82877751	-0.078674139	-0.53789558	0.82292196	0.16981403	-0.71551706	0.89995747	0.047216188	-0.6245918	1.3114112	-0.13741066	-0.60087906	1.2985351	0.22378782	-0.69392884	1.336689	0.048218601	-0.74569016	1.0283128	-0.19273439	-0.55776812	0.98677394	0.32751854	-0.68227852	0.79891486	-0.24980566	-0.31585071	0.95979959	0.27075599
137	0.544	-0.11741735	0.13386124	-0.053015385	-0.77517695	0.03530826	0.10270875	-0.24319065	0.10609636	-0.071652303	-0.90630708	0.066133113	0.12567524	-0.24726127	0.12163134	0.012707695	-0.88449293	0.086307981	0.0400335	-0.28797304	0.042877549	-0.02109252	-0.96450437	0.04839301	0.063145619	-0.38885819	0.44135021	-0.078200546	-0.74096133	0.4216366	0.15865943	-0.40946659	0.4339224	0.048120666	-0.77162544	0.4243605	0.027409381	-0.58190241	0.77876359	-0.1331089	-0.62414536	0.77049927	0.21145938	-0.52135328	0.82681347	-0.078622995	-0.53195906	0.82105901	0.16980903	-0.70832287	0.89781538	0.046032955	-0.61818709	1.3095299	-0.13777987	-0.59452088	1.2968967	0.22338536	-0.68771559	1.3349368	0.0478501	-0.74044568	1.0270062	-0.19233642	-0.55023641	0.98541192	0.32763663	-0.67893428	0.79737667	-0.25061772	-0.30841547	0.96045095	0.26960501
138	0.548	-0.10783348	0.13467283	-0.052176281	-0.77506448	0.035264791	0.10263707	-0.23342422	0.10624892	-0.070922112	-0.90590734	0.066785502	0.12557306	-0.23794614	0.12168261	0.013322262	-0.88381058	0.086788428	0.039844937	-0.27797685	0.042690857	-0.020345758	-0.96421484	0.049521932	0.06300347	-0.38115082	0.44069475	-0.077826307	-0.73664504	0.4205754	0.15832737	-0.40202778	0.43326441	0.048374643	-0.76686804	0.42347803	0.027065114	-0.57500631	0.77706056	-0.13315563	-0.61780203	0.76881359	0.2111308	-0.51435369	0.8249201	-0.078589358	-0.5258902	0.81921222	0.16981874	-0.70103312	0.89571786	0.044870075	-0.61180638	1.3076823	-0.13819146	-0.58811347	1.295284	0.2229625	-0.68150688	1.3332399	0.047479258	-0.73505382	1.0256802	-0.19194113	-0.54278134	0.98409597	0.32770419	-0.67554144	0.79584802	-0.25142135	-0.30106098	0.96100082	0.26847118
139	0.552	-0.098772332	0.13495212	-0.051305225	-0.77495341	0.035225076	0.1025703	-0.22419552	0.10607237	-0.070122637	-0.90547795	0.067520339	0.1254941	-0.22905597	0.12152488	0.014034408	-0.88311994	0.087325851	0.039699818	-0.2686313	0.042317676	-0.019506339	-0.96391859	0.050788566	0.062946754	-0.37341559	0.44001881	-0.07750368	-0.73222537	0.41952903	0.15801071	-0.39448583	0.43261421	0.048576488	-0.76200963	0.42256445	0.026733678	-0.56799316	0.7754299	-0.13325761	-0.61163779	0.76715929	0.21083886	-0.50737484	0.82311139	-0.078561421	-0.51954568	0.817423	0.16987648	-0.69402567	0.89388713	0.044243996	-0.6055201	1.3058684	-0.13865866	-0.58165611	1.2937036	0.22251659	-0.67518085	1.3315774	0.047091049	-0.72953601	1.0243522	-0.19158019	-0.53541016	0.98281961	0.32773121	-0.67206101	0.79432841	-0.25220035	-0.29379259	0.96143496	0.26735489
140	0.556	-0.090221822	0.1347071	-0.05036687	-0.77483847	0.035191568	0.10251656	-0.21550374	0.10557508	-0.069280476	-0.90500545	0.068343947	0.1254468	-0.22063991	0.12111375	0.014808719	-0.88241446	0.087927348	0.039605036	-0.25995201	0.041740506	-0.018630374	-0.96359914	0.052200922	0.062961446	-0.36551213	0.43935244	-0.077186109	-0.72770526	0.41849687	0.15771697	-0.38683122	0.43197744	0.048736395	-0.75705375	0.42162056	0.026416423	-0.56084934	0.77386881	-0.13341613	-0.60568129	0.76554289	0.21058635	-0.50041702	0.82139513	-0.078535004	-0.51291885	0.81572468	0.16996477	-0.68737233	0.89236033	0.044230656	-0.59925564	1.3040872	-0.1391623	-0.57515773	1.2921626	0.22205406	-0.66874769	1.329983	0.046665644	-0.72391952	1.023033	-0.19126682	-0.52811065	0.98157189	0.32771293	-0.66850178	0.79280783	-0.25294774	-0.28659977	0.96174473	0.26625724
141	0.56	-0.082184295	0.13395727	-0.049334755	-0.77471348	0.035172274	0.10248339	-0.2073443	0.10477528	-0.068405141	-0.90448933	0.069261219	0.12543945	-0.21269313	0.12044084	0.015650082	-0.8816674	0.088608845	0.039573209	-0.25195075	0.040958261	-0.017766465	-0.96324772	0.053762619	0.06304485	-0.35737994	0.43870933	-0.076855583	-0.72309257	0.41748261	0.15744455	-0.37907009	0.43137062	0.048864838	-0.75199545	0.42065235	0.026118322	-0.55366297	0.77239489	-0.13360976	-0.59995924	0.76397072	0.21037543	-0.49343901	0.81977163	-0.078512341	-0.50619188	0.81411413	0.17001891	-0.68086955	0.8910119	0.044509585	-0.59292532	1.3023511	-0.139683	-0.56862963	1.2906641	0.22158004	-0.66229924	1.3285006	0.046187197	-0.7182177	1.021725	-0.19098599	-0.52086625	0.98034419	0.32763961	-0.66488815	0.79128856	-0.25367019	-0.27947305	0.96193171	0.26518227
142	0.564	-0.074671258	0.13272918	-0.048194474	-0.77457541	0.035173522	0.10247461	-0.19971101	0.10369375	-0.067495854	-0.90392766	0.070280059	0.12547756	-0.20516477	0.11953181	0.016591252	-0.88085079	0.089387186	0.039605477	-0.24462798	0.039980514	-0.016952925	-0.96288372	0.055476521	0.063228773	-0.34915634	0.43807414	-0.07654509	-0.71839383	0.41649034	0.15718339	-0.37121775	0.4308142	0.048966124	-0.74681971	0.41966908	0.025833245	-0.54651024	0.7710343	-0.13383359	-0.59449986	0.76244954	0.21020871	-0.48640933	0.81824156	-0.078499892	-0.49959266	0.81256038	0.17000433	-0.6743017	0.88971055	0.044741172	-0.58652682	1.3006826	-0.14022348	-0.56208338	1.2892094	0.22109184	-0.65588199	1.3271129	0.04566164	-0.71243255	1.0204282	-0.19071978	-0.51367156	0.97913193	0.32750605	-0.66118146	0.78979941	-0.25436786	-0.27240678	0.96199948	0.26413068
143	0.568	-0.067683049	0.13105356	-0.046936771	-0.77442528	0.035191499	0.10248614	-0.1925954	0.1023489	-0.066554932	-0.90330667	0.071411633	0.12556442	-0.19804161	0.11839572	0.017630018	-0.87995544	0.090270542	0.039688844	-0.23796781	0.038810859	-0.016208127	-0.9625579	0.057350508	0.063589955	-0.34101924	0.43743371	-0.076292169	-0.71360418	0.41552574	0.15692644	-0.36328992	0.4303246	0.049035619	-0.74150091	0.41867749	0.025541759	-0.53936453	0.76979167	-0.13409867	-0.58934279	0.76098802	0.21009224	-0.47932065	0.8168108	-0.07850625	-0.49319959	0.8110305	0.16996801	-0.66758589	0.88840331	0.044789016	-0.58009662	1.2990866	-0.14079164	-0.55554062	1.2877989	0.22058507	-0.64946126	1.3257569	0.04511001	-0.70656287	1.0191439	-0.19046423	-0.50653114	0.97793626	0.32730884	-0.65727511	0.78837351	-0.25501889	-0.2654007	0.96194937	0.2631001
144	0.572	-0.061196391	0.12896426	-0.045549682	-0.77426635	0.035212137	0.10250557	-0.18598832	0.10075538	-0.065590106	-0.90260635	0.072668949	0.12570639	-0.19140601	0.11699166	0.01869593	-0.87899157	0.091259467	0.039812164	-0.23194374	0.037447602	-0.015530399	-0.96228005	0.059402891	0.064158352	-0.33297272	0.43680601	-0.076094581	-0.70870144	0.41460061	0.15668299	-0.35530136	0.4299064	0.049069247	-0.7360156	0.41768175	0.025232157	-0.5321556	0.76864531	-0.13440743	-0.58455235	0.75959809	0.21003965	-0.47217396	0.81548624	-0.078536993	-0.4869065	0.80950467	0.16996506	-0.66074453	0.8870919	0.044688313	-0.57362725	1.2975358	-0.14137989	-0.54903063	1.2864347	0.22006002	-0.64297912	1.3243935	0.044547105	-0.70060812	1.0178746	-0.19022334	-0.49945562	0.97676617	0.32704634	-0.65311913	0.78700997	-0.25560646	-0.25845619	0.96178194	0.2620901
